<svg xmlns="http://www.w3.org/2000/svg" xmlns:xlink="http://www.w3.org/1999/xlink" version="1.1" id="Your_Icon" x="0px" y="0px" width="100px" height="100px" viewBox="0 0 100 100" enable-background="new 0 0 100 100" xml:space="preserve">
<path d="M43.225,70.795c-0.039,0.022-0.082,0.034-0.125,0.034s-0.087-0.012-0.125-0.034l-16.346-9.438v18.839l3.274,1.89  l8.827,5.097l4.446,2.567l4.446-2.567l8.849-5.11l3.251-1.877V61.269L43.225,70.795z M55.448,53.775  c-0.007,0.011-0.012,0.021-0.018,0.032c-0.001,0.002-0.002,0.003-0.002,0.005c0.013-0.023,0.026-0.046,0.039-0.069  C55.461,53.754,55.455,53.764,55.448,53.775z"/>
<g id="Main">
	<g>
		<path d="M36.931,40.219c-0.016-0.203-0.058-0.406-0.128-0.598c0.038,0.287,0.083,0.574,0.134,0.86    C36.94,40.394,36.938,40.306,36.931,40.219z"/>
	</g>
	<g>
		<path d="M42.902,59.886c0.009,0.01,0.018,0.019,0.028,0.027c0.008,0.007,0.016,0.015,0.024,0.021    C42.936,59.918,42.919,59.902,42.902,59.886z M42.398,59.298c0.008,0.012,0.016,0.024,0.024,0.036    c0.008,0.012,0.016,0.023,0.025,0.035c0.005,0.007,0.01,0.013,0.015,0.019C42.441,59.359,42.419,59.328,42.398,59.298z"/>
		<path d="M42.852,59.837c-0.01-0.009-0.02-0.019-0.03-0.029c0.012,0.013,0.025,0.026,0.038,0.038    C42.857,59.842,42.855,59.84,42.852,59.837z M42.902,59.886c0.009,0.01,0.018,0.019,0.028,0.027    c0.008,0.007,0.016,0.015,0.024,0.021C42.936,59.918,42.919,59.902,42.902,59.886z M42.398,59.298    c0.008,0.012,0.016,0.024,0.024,0.036c0.008,0.012,0.016,0.023,0.025,0.035c0.005,0.007,0.01,0.013,0.015,0.019    C42.441,59.359,42.419,59.328,42.398,59.298z"/>
	</g>
	<g>
		<path d="M46.885,58.17c-0.038-0.606-0.295-1.183-0.682-1.643c-0.386-0.462-0.912-0.823-1.52-0.976    c-0.304-0.074-0.629-0.09-0.947-0.024c-0.318,0.065-0.619,0.214-0.866,0.439c-0.235,0.215-0.412,0.509-0.494,0.813    c-0.084,0.305-0.089,0.619-0.037,0.914c0.052,0.296,0.155,0.575,0.291,0.83c0.135,0.256,0.303,0.49,0.494,0.7    c0.382,0.42,0.872,0.749,1.431,0.901c0.279,0.075,0.577,0.099,0.871,0.051c0.294-0.046,0.58-0.173,0.814-0.367    c0.234-0.196,0.414-0.457,0.519-0.743C46.866,58.779,46.904,58.471,46.885,58.17z M46.488,58.97    c-0.079,0.247-0.221,0.473-0.413,0.65c-0.19,0.178-0.428,0.305-0.687,0.372c-0.26,0.067-0.539,0.075-0.811,0.029    c-0.547-0.091-1.056-0.402-1.415-0.831c-0.363-0.426-0.569-0.983-0.556-1.519c0.005-0.267,0.06-0.526,0.163-0.754    c0.102-0.231,0.247-0.423,0.437-0.58c0.177-0.147,0.402-0.253,0.636-0.301c0.236-0.049,0.488-0.048,0.735-0.001    c0.498,0.089,0.97,0.368,1.325,0.755c0.356,0.386,0.603,0.883,0.659,1.406C46.589,58.457,46.568,58.723,46.488,58.97z"/>
	</g>
	<g>
		<path d="M40.957,49.389c-0.206-0.452-0.549-0.86-1.002-1.115c-0.226-0.126-0.483-0.21-0.751-0.228    c-0.269-0.018-0.542,0.034-0.789,0.159c-0.114,0.061-0.229,0.141-0.326,0.232c-0.098,0.091-0.18,0.197-0.249,0.308    c-0.136,0.225-0.209,0.476-0.234,0.723c-0.047,0.499,0.076,0.98,0.288,1.402c0.213,0.422,0.533,0.795,0.949,1.04    c0.207,0.121,0.441,0.206,0.687,0.233c0.247,0.027,0.502-0.011,0.735-0.116c0.228-0.104,0.431-0.274,0.579-0.48    c0.148-0.205,0.247-0.444,0.298-0.689C41.245,50.364,41.167,49.846,40.957,49.389z M40.887,50.809    c-0.068,0.432-0.315,0.841-0.711,1.039c-0.191,0.1-0.413,0.15-0.636,0.145c-0.224-0.004-0.45-0.06-0.658-0.158    c-0.419-0.195-0.758-0.558-0.953-0.982c-0.197-0.423-0.24-0.916-0.113-1.345c0.126-0.43,0.406-0.783,0.779-0.945    c0.36-0.164,0.8-0.126,1.176,0.061c0.382,0.185,0.698,0.513,0.9,0.907C40.869,49.919,40.959,50.376,40.887,50.809z"/>
	</g>
	<g>
		<path d="M36.931,40.219c-0.016-0.203-0.058-0.406-0.128-0.598c0.038,0.287,0.083,0.574,0.134,0.86    C36.94,40.394,36.938,40.306,36.931,40.219z"/>
		<path d="M36.803,39.621c-0.082-0.227-0.203-0.44-0.363-0.625c-0.149-0.17-0.332-0.315-0.542-0.411    c-0.21-0.094-0.446-0.135-0.677-0.113c-0.23,0.025-0.452,0.114-0.633,0.25c-0.182,0.137-0.326,0.315-0.432,0.508    c-0.106,0.193-0.174,0.404-0.211,0.617c-0.037,0.214-0.044,0.431-0.022,0.644c0.02,0.214,0.07,0.426,0.152,0.624    c0.079,0.2,0.187,0.39,0.329,0.554c0.139,0.165,0.311,0.306,0.51,0.401c0.198,0.095,0.423,0.14,0.645,0.124    c0.222-0.017,0.439-0.096,0.624-0.221s0.338-0.292,0.456-0.481c0.188-0.303,0.285-0.656,0.298-1.011    C36.886,40.195,36.841,39.908,36.803,39.621z M36.528,41.425c-0.105,0.177-0.243,0.335-0.411,0.453    c-0.166,0.119-0.363,0.196-0.567,0.217c-0.412,0.049-0.829-0.145-1.115-0.454c-0.143-0.156-0.259-0.337-0.342-0.533    c-0.081-0.197-0.13-0.406-0.15-0.618c-0.036-0.425,0.071-0.86,0.305-1.204c0.23-0.346,0.598-0.588,0.992-0.614    c0.394-0.035,0.783,0.157,1.052,0.455c0.273,0.298,0.437,0.697,0.48,1.106C36.815,40.642,36.738,41.069,36.528,41.425z"/>
	</g>
	<g>
		<path d="M37.424,31.216c-0.011-0.057-0.025-0.113-0.042-0.169c-0.043-0.14-0.107-0.276-0.194-0.398    c-0.12-0.172-0.286-0.312-0.481-0.401c-0.19-0.083-0.408-0.118-0.614-0.093c-0.207,0.023-0.402,0.101-0.571,0.21    c-0.339,0.22-0.577,0.548-0.737,0.897c-0.156,0.351-0.251,0.744-0.193,1.144c0.029,0.198,0.099,0.396,0.219,0.564    c0.118,0.17,0.285,0.307,0.478,0.389c0.189,0.078,0.402,0.101,0.601,0.074c0.2-0.028,0.388-0.101,0.558-0.199    c0.197-0.115,0.372-0.264,0.519-0.437c0.107-0.126,0.2-0.264,0.276-0.413C37.422,32.036,37.504,31.618,37.424,31.216z     M37.142,32.341c-0.037,0.095-0.084,0.187-0.139,0.275c-0.143,0.232-0.343,0.433-0.587,0.561c-0.332,0.18-0.742,0.196-1.06,0.029    c-0.639-0.319-0.885-1.238-0.553-1.936c0.158-0.349,0.447-0.636,0.783-0.79c0.335-0.153,0.716-0.19,1.035-0.036    c0.315,0.144,0.541,0.458,0.619,0.811c0.015,0.065,0.025,0.13,0.032,0.196C37.303,31.747,37.255,32.054,37.142,32.341z"/>
	</g>
	<g>
		<path d="M40.412,24.474c-0.036-0.156-0.116-0.305-0.252-0.414c-0.015-0.011-0.026-0.02-0.045-0.031    c-0.019-0.012-0.038-0.024-0.056-0.033c-0.036-0.019-0.075-0.033-0.113-0.046c-0.078-0.024-0.158-0.031-0.236-0.03    c-0.156,0.006-0.301,0.052-0.433,0.116c-0.132,0.064-0.251,0.149-0.359,0.242c-0.108,0.094-0.206,0.197-0.294,0.308    c-0.173,0.222-0.315,0.475-0.379,0.755c-0.031,0.139-0.043,0.286-0.015,0.431c0.028,0.145,0.097,0.286,0.217,0.389    c0.114,0.097,0.271,0.15,0.42,0.154c0.151,0.006,0.3-0.027,0.437-0.079c0.061-0.024,0.121-0.052,0.178-0.084    c0.201-0.109,0.377-0.26,0.526-0.434c0.188-0.221,0.337-0.487,0.4-0.783c0.017-0.086,0.028-0.175,0.027-0.265    C40.434,24.605,40.427,24.539,40.412,24.474z M40.214,24.898c-0.008,0.048-0.019,0.095-0.033,0.142    c-0.057,0.207-0.162,0.404-0.298,0.579c-0.067,0.084-0.142,0.164-0.223,0.236c-0.121,0.107-0.257,0.197-0.404,0.26    c-0.242,0.105-0.539,0.132-0.749-0.034c-0.099-0.076-0.172-0.195-0.204-0.325c-0.035-0.13-0.037-0.271-0.016-0.408    c0.043-0.274,0.171-0.535,0.353-0.749c0.18-0.215,0.419-0.38,0.677-0.464c0.257-0.083,0.541-0.075,0.723,0.084    c0.083,0.071,0.146,0.181,0.169,0.301C40.237,24.639,40.237,24.77,40.214,24.898z"/>
	</g>
	<g>
		<path d="M45.547,18.707c-0.017-0.02-0.02-0.024-0.037-0.042c-0.015-0.016-0.031-0.03-0.045-0.042    c-0.03-0.025-0.063-0.045-0.096-0.063c-0.068-0.035-0.14-0.054-0.21-0.065c-0.143-0.017-0.28,0.003-0.408,0.038    c-0.129,0.035-0.25,0.089-0.363,0.152c-0.115,0.062-0.223,0.133-0.325,0.212c-0.102,0.078-0.198,0.164-0.286,0.258    s-0.169,0.196-0.234,0.309c-0.066,0.111-0.118,0.235-0.138,0.368c-0.018,0.133,0,0.279,0.085,0.4    c0.081,0.115,0.218,0.188,0.352,0.215c0.136,0.028,0.273,0.022,0.405-0.001c0.044-0.008,0.088-0.018,0.13-0.03    c0.215-0.059,0.415-0.161,0.598-0.29c0.205-0.147,0.392-0.331,0.527-0.555c0.007-0.01,0.013-0.02,0.019-0.03    c0.066-0.121,0.119-0.253,0.136-0.399C45.672,18.998,45.643,18.834,45.547,18.707z M45.45,19.121    c-0.011,0.109-0.049,0.221-0.103,0.326c-0.107,0.213-0.274,0.4-0.469,0.552c-0.193,0.148-0.418,0.266-0.656,0.319    c-0.119,0.026-0.241,0.036-0.358,0.016c-0.117-0.02-0.223-0.071-0.296-0.164c-0.069-0.086-0.098-0.21-0.089-0.33    c0.009-0.122,0.047-0.243,0.101-0.356c0.112-0.227,0.288-0.423,0.495-0.571c0.207-0.149,0.451-0.247,0.697-0.275    c0.241-0.03,0.502,0.022,0.614,0.188C45.444,18.906,45.463,19.012,45.45,19.121z"/>
	</g>
	<g>
		<path d="M83.448,56.104c-0.055-0.691-0.157-1.381-0.307-2.062c-0.3-1.362-0.791-2.688-1.455-3.925    c-0.664-1.238-1.501-2.387-2.481-3.407c-0.98-1.019-2.103-1.91-3.333-2.633c-1.23-0.725-2.568-1.282-3.962-1.647    c-0.696-0.182-1.406-0.316-2.123-0.402c-0.361-0.042-0.712-0.074-1.083-0.092l-0.26-0.011l-0.054-0.002l-0.084-0.002l-0.13-0.003    c-0.173-0.004-0.347-0.005-0.52-0.004c-1.39,0.008-2.788,0.167-4.156,0.481c-2.738,0.625-5.349,1.873-7.58,3.625    c-2.234,1.75-4.094,4.003-5.393,6.574c-0.418,0.826-0.779,1.685-1.077,2.566l-4.695-2.712c-0.512-1.046-0.844-2.189-0.914-3.294    c-0.029-0.468-0.013-0.927,0.057-1.369c0.007-0.041,0.014-0.082,0.022-0.122c0.342-0.183,0.706-0.653,0.941-1.263    c0.185-0.481,0.252-0.951,0.208-1.306c0-0.001,0-0.001,0-0.001c0.334-0.451,0.73-0.876,1.178-1.255    c0.105-0.089,0.213-0.175,0.324-0.259c0.285,0.073,0.745-0.038,1.191-0.312c0.351-0.215,0.616-0.485,0.744-0.729    c0.285-0.097,0.579-0.175,0.882-0.23c0.597-0.108,1.224-0.123,1.856-0.015c0.255,0.044,0.512,0.108,0.765,0.194    c0.372,0.123,0.738,0.292,1.088,0.503c-0.252-0.344-0.55-0.668-0.888-0.958c-0.206-0.176-0.427-0.341-0.663-0.49    c-0.621-0.396-1.334-0.683-2.084-0.852c-0.751-0.169-1.537-0.223-2.323-0.176c-0.786,0.047-1.573,0.194-2.342,0.428    c-1.536,0.47-3.011,1.281-4.297,2.451c-0.161,0.147-0.318,0.299-0.471,0.457c-0.156,0.161-0.301,0.318-0.453,0.498l-0.06,0.073    l-0.045,0.05l-0.022,0.024l-0.011,0.012c0,0-0.01,0.017-0.015,0.022v0.001c-0.001,0.001-0.001,0.001-0.001,0.001l-0.005,0.007    l-0.053,0.069c-0.071,0.092-0.14,0.186-0.207,0.281c-0.135,0.189-0.263,0.382-0.385,0.579c-0.085,0.138-0.167,0.277-0.245,0.418    c-0.574-1.394-1.033-2.816-1.359-4.252c0.21-0.454,0.312-0.953,0.306-1.465c-0.006-0.296-0.049-0.602-0.151-0.891    c-0.1-0.289-0.255-0.564-0.457-0.805c-0.064-0.076-0.132-0.149-0.206-0.217c-0.116-1.559-0.062-3.119,0.17-4.656    c0.362-0.261,0.662-0.601,0.887-0.998c0.13-0.234,0.236-0.494,0.287-0.767c0.053-0.273,0.056-0.559,0.006-0.84    c-0.049-0.282-0.154-0.56-0.324-0.806c-0.008-0.012-0.017-0.024-0.027-0.036c0.401-1.198,0.914-2.365,1.529-3.484    c0.066-0.023,0.13-0.05,0.193-0.078c0.381-0.176,0.719-0.414,1.027-0.714c0.07-0.068,0.147-0.154,0.214-0.235    c0.069-0.083,0.13-0.172,0.186-0.266c0.112-0.187,0.196-0.394,0.248-0.614c0.051-0.221,0.069-0.458,0.022-0.701    c-0.012-0.064-0.029-0.128-0.053-0.191c0.81-1.05,1.716-2.026,2.698-2.898c0.18,0.03,0.359,0.022,0.531-0.006    c0.393-0.069,0.753-0.236,1.076-0.46c0.319-0.22,0.61-0.501,0.823-0.855c0.104-0.178,0.186-0.379,0.212-0.608    c0.002-0.018,0.003-0.035,0.005-0.053c0.037-0.024,0.074-0.048,0.111-0.071c0.245-0.151,0.494-0.297,0.746-0.435    c0.867-0.476,1.777-0.871,2.715-1.175c0.026,0.029,0.055,0.053,0.083,0.074c0.082,0.06,0.167,0.101,0.251,0.133    c0.17,0.062,0.339,0.098,0.509,0.12c0.339,0.041,0.675,0.026,1.008-0.026c0.328-0.054,0.655-0.146,0.963-0.292    c0.155-0.073,0.304-0.162,0.445-0.274c0.071-0.057,0.138-0.122,0.197-0.205c0.038-0.056,0.078-0.126,0.09-0.21    c1.122-0.069,2.247,0,3.339,0.22c0.018,0.077,0.046,0.151,0.08,0.221c0.093,0.187,0.227,0.343,0.375,0.475    c0.301,0.262,0.657,0.437,1.035,0.547c0.371,0.109,0.773,0.159,1.182,0.102c0.188-0.03,0.38-0.085,0.56-0.192    c0.085,0.044,0.169,0.091,0.253,0.138c0.793,0.447,1.539,0.992,2.223,1.624c-0.019,0.041-0.034,0.084-0.045,0.127    c-0.027,0.105-0.034,0.213-0.027,0.317c0.014,0.208,0.079,0.403,0.165,0.582c0.179,0.358,0.441,0.653,0.75,0.901    c0.068,0.054,0.155,0.118,0.235,0.171c0.082,0.055,0.167,0.105,0.255,0.151c0.176,0.093,0.363,0.17,0.564,0.22    c0.053,0.012,0.107,0.023,0.162,0.03c0.145,0.244,0.279,0.494,0.403,0.75c0.494,1.019,0.816,2.132,0.944,3.281    c0.028,0.247,0.047,0.496,0.056,0.746c-0.071,0.076-0.131,0.159-0.183,0.245c-0.165,0.282-0.249,0.59-0.281,0.912    c-0.027,0.31-0.013,0.641,0.096,0.963c0.041,0.115,0.095,0.23,0.172,0.337c-0.018,0.092-0.038,0.183-0.059,0.275    c-0.205,0.898-0.531,1.773-0.969,2.596c-0.089,0.005-0.171,0.027-0.245,0.058c-0.161,0.07-0.284,0.175-0.385,0.289    c-0.101,0.114-0.182,0.236-0.253,0.361c-0.071,0.123-0.134,0.249-0.191,0.375c-0.111,0.253-0.203,0.516-0.237,0.8    c-0.001,0.013-0.003,0.025-0.003,0.038c-0.054,0.062-0.108,0.124-0.163,0.185c-0.202,0.225-0.414,0.441-0.636,0.649    c-0.11,0.104-0.224,0.205-0.339,0.305l-0.043,0.037c-0.016,0.012-0.003,0.004-0.014,0.013l-0.026,0.021l-0.093,0.077    c-0.048,0.04-0.109,0.089-0.166,0.133c-0.21,0.165-0.429,0.32-0.656,0.464c-0.013,0.001-0.025,0.001-0.038,0.001    c-0.143,0.002-0.282,0.012-0.42,0.027c-0.274,0.033-0.547,0.089-0.809,0.204c-0.13,0.058-0.257,0.135-0.363,0.248    c-0.093,0.099-0.168,0.23-0.178,0.389c-0.231,0.079-0.466,0.148-0.704,0.206c-1.162,0.285-2.399,0.324-3.603,0.103    c-0.287-0.052-0.571-0.118-0.852-0.2c-0.901-0.259-1.765-0.666-2.548-1.206c-0.513-0.354-0.992-0.765-1.425-1.225    c-0.108-0.115-0.214-0.233-0.317-0.354l-0.077-0.093l-0.07-0.085c-0.048-0.061-0.095-0.122-0.141-0.184    c-0.185-0.248-0.354-0.508-0.505-0.779c-0.607-1.083-0.923-2.345-0.895-3.622c0.024-1.275,0.392-2.56,1.073-3.675    c0.34-0.559,0.757-1.074,1.238-1.53c0.478-0.456,1.017-0.842,1.615-1.127c1.193-0.574,2.6-0.741,3.934-0.45    c0.668,0.144,1.315,0.4,1.908,0.758c0.593,0.358,1.129,0.818,1.581,1.356c-0.402-0.576-0.902-1.09-1.478-1.511    c-0.575-0.421-1.225-0.749-1.916-0.963c-1.379-0.432-2.924-0.4-4.318,0.125c-0.698,0.258-1.353,0.644-1.934,1.108    c-0.582,0.461-1.107,1.003-1.554,1.608c-0.895,1.209-1.468,2.673-1.634,4.199c-0.169,1.525,0.071,3.114,0.713,4.548    c0.159,0.358,0.343,0.707,0.549,1.042c0.052,0.084,0.105,0.167,0.159,0.249l0.086,0.127l0.081,0.117    c0.111,0.158,0.226,0.312,0.346,0.465c0.478,0.608,1.023,1.169,1.625,1.668c0.863,0.718,1.842,1.305,2.892,1.734    c0.412,0.17,0.835,0.315,1.267,0.435c1.529,0.424,3.16,0.527,4.757,0.285c1.597-0.24,3.157-0.83,4.532-1.72    c0.087-0.056,0.168-0.109,0.261-0.174l0.118-0.08l0.126-0.09c0.161-0.116,0.321-0.235,0.478-0.358    c0.314-0.246,0.62-0.505,0.913-0.778c0.589-0.545,1.133-1.142,1.624-1.783c0.983-1.283,1.751-2.742,2.257-4.295    c0.507-1.554,0.755-3.201,0.721-4.856c-0.033-1.655-0.349-3.317-0.94-4.889c-0.294-0.786-0.658-1.549-1.082-2.277    c-0.212-0.363-0.441-0.72-0.681-1.063c-0.239-0.341-0.482-0.663-0.74-0.985c-1.03-1.279-2.256-2.432-3.634-3.387    c-1.378-0.956-2.903-1.713-4.501-2.239c-1.598-0.528-3.265-0.83-4.934-0.918c-1.671-0.088-3.345,0.036-4.978,0.346    c-1.633,0.312-3.227,0.809-4.748,1.471c-0.38,0.165-0.756,0.341-1.127,0.526c-0.185,0.093-0.37,0.187-0.553,0.285l-0.273,0.148    l-0.283,0.159l-0.115,0.064l-0.029,0.016l-0.047,0.029l-0.066,0.04l-0.265,0.163c-0.175,0.109-0.349,0.22-0.521,0.334    c-0.343,0.226-0.68,0.46-1.01,0.7c-1.319,0.964-2.536,2.036-3.657,3.198c-1.12,1.163-2.144,2.417-3.062,3.75    c-1.835,2.664-3.244,5.658-4.105,8.826c-0.866,3.166-1.17,6.494-0.945,9.75c0.212,3.108,0.892,6.142,1.895,9.005    c-0.264-0.153-0.531-0.299-0.8-0.437c-2.102-1.079-4.318-1.727-6.518-2.029c-1.523-0.209-3.041-0.059-4.526,0.164    c-0.518,0.077-1.032,0.164-1.54,0.247l0.208,0.165c1.868,0.287,3.656,0.547,5.293,1.342c0.495,0.241,0.976,0.5,1.44,0.779    c0.037,0.083,0.081,0.163,0.13,0.239c0.209,0.319,0.499,0.578,0.822,0.78c0.319,0.193,0.676,0.337,1.063,0.384    c0.467,0.377,0.907,0.776,1.316,1.193c0.303,0.308,0.589,0.627,0.856,0.954c-0.022,0.149-0.017,0.301,0.003,0.448    c0.054,0.378,0.207,0.736,0.414,1.055c0.212,0.317,0.481,0.603,0.821,0.811c0.105,0.062,0.216,0.116,0.336,0.157    c0.031,0.063,0.06,0.127,0.088,0.19c-0.058-0.004-0.116-0.007-0.174-0.01c-0.625-0.032-1.25-0.017-1.867,0.044    c-0.124,0.012-0.248,0.026-0.371,0.042c-1.474,0.19-2.892,0.644-4.171,1.317c-1.281,0.673-2.423,1.565-3.367,2.614    c-0.945,1.048-1.688,2.254-2.191,3.533c-0.252,0.641-0.444,1.291-0.579,1.963c-0.135,0.681-0.194,1.37-0.177,2.053    c0.034,1.366,0.38,2.697,0.98,3.871c0.598,1.175,1.449,2.194,2.458,2.97c1.009,0.778,2.175,1.308,3.375,1.563    c-1.14-0.455-2.155-1.156-2.954-2.026c-0.801-0.868-1.389-1.9-1.724-2.985c-0.337-1.085-0.422-2.221-0.262-3.298    c0.079-0.538,0.219-1.063,0.411-1.56c0.009-0.023,0.018-0.045,0.027-0.068c0.185-0.102,0.336-0.24,0.464-0.39    c0.266-0.318,0.425-0.699,0.499-1.089c0.022-0.129,0.038-0.259,0.043-0.39c0.508-0.724,1.115-1.361,1.792-1.891    c0.016-0.013,0.033-0.025,0.049-0.037c0.302,0.017,0.606-0.025,0.898-0.107c0.366-0.108,0.719-0.28,1.019-0.542    c0.147-0.133,0.282-0.29,0.376-0.484c0.024-0.051,0.046-0.104,0.063-0.161c0.1-0.036,0.2-0.07,0.301-0.102    c0.854-0.273,1.737-0.404,2.602-0.395c0.04,0.098,0.1,0.187,0.171,0.263c0.131,0.14,0.295,0.245,0.466,0.325l-0.304,0.175    l-0.358,0.207L43.1,70.29l0.358-0.207l15.919-9.192l-2.919-1.685c0.028-0.294,0.068-0.587,0.118-0.877    c0.09-0.519,0.215-1.034,0.374-1.54c0.094-0.05,0.184-0.106,0.27-0.167c0.45-0.326,0.789-0.774,1.022-1.264    c0.231-0.49,0.364-1.036,0.33-1.591c-0.005-0.08-0.014-0.161-0.028-0.241c0.532-0.772,1.155-1.488,1.855-2.126    c0.285-0.261,0.582-0.508,0.891-0.74c0.049,0.017,0.1,0.03,0.15,0.041c0.21,0.043,0.421,0.037,0.626,0.011    c0.411-0.054,0.803-0.193,1.168-0.379c0.365-0.187,0.71-0.423,1.002-0.727c0.143-0.155,0.275-0.327,0.365-0.534    c0.031-0.073,0.057-0.15,0.072-0.233c0.154-0.054,0.31-0.106,0.466-0.154c0.885-0.274,1.804-0.45,2.741-0.525    c0.007-0.001,0.013-0.001,0.02-0.002c0.007,0.023,0.016,0.046,0.026,0.065c0.024,0.045,0.055,0.084,0.087,0.117    c0.066,0.065,0.139,0.115,0.215,0.157c0.151,0.083,0.308,0.142,0.468,0.188c0.32,0.089,0.648,0.132,0.978,0.139    c0.327,0.006,0.658-0.024,0.981-0.1c0.162-0.039,0.321-0.092,0.475-0.169c0.061-0.031,0.12-0.066,0.176-0.112    c1.064,0.282,2.088,0.751,3.014,1.384c-0.005,0.039-0.007,0.078-0.005,0.117c0.007,0.147,0.05,0.289,0.11,0.42    c0.123,0.264,0.312,0.49,0.534,0.677c0.224,0.183,0.483,0.333,0.781,0.409c0.141,0.034,0.293,0.052,0.453,0.032    c0.691,0.784,1.263,1.681,1.685,2.65c0,0.001,0,0.001,0,0.001c-0.032,0.105-0.051,0.214-0.061,0.322    c-0.036,0.38,0.03,0.763,0.158,1.122c0.132,0.358,0.328,0.698,0.61,0.979l0.005,0.005c0.004,0.025,0.008,0.049,0.012,0.074    c0.036,0.233,0.064,0.468,0.084,0.704c0.01,0.118,0.019,0.237,0.024,0.356l0.003,0.044l0.001,0.022c0,0,0,0.004,0.001,0.008    l0.003,0.109l0.004,0.158c0.009,0.62-0.055,1.24-0.192,1.847c-0.115,0.133-0.216,0.277-0.305,0.428    c-0.19,0.331-0.326,0.7-0.36,1.097c-0.008,0.101-0.008,0.204,0.002,0.308c-0.245,0.482-0.54,0.942-0.881,1.37    c-0.575,0.722-1.28,1.352-2.075,1.846c-0.795,0.495-1.68,0.854-2.609,1.052c-0.233,0.05-0.468,0.09-0.705,0.12    c-0.118,0.015-0.237,0.028-0.357,0.037l-0.179,0.013l-0.172,0.01l-0.178,0.005H70.54c-0.114-0.001-0.228-0.005-0.342-0.012    c-0.227-0.014-0.454-0.041-0.679-0.08c-0.9-0.154-1.775-0.508-2.545-1.037c-0.771-0.527-1.435-1.228-1.926-2.042    c-0.491-0.814-0.808-1.74-0.915-2.704c-0.025-0.217-0.038-0.426-0.041-0.632c-0.005-0.263,0.01-0.52,0.045-0.78    c0.062-0.46,0.186-0.915,0.371-1.348c0.368-0.865,0.982-1.642,1.761-2.212c0.777-0.572,1.716-0.934,2.701-1.026    c0.122-0.012,0.247-0.02,0.37-0.023l0.094-0.001c0.027,0,0.05-0.001,0.081,0c0.06,0,0.119,0.003,0.178,0.006    c0.237,0.013,0.474,0.045,0.706,0.098c0.466,0.105,0.917,0.291,1.328,0.548c0.824,0.513,1.482,1.319,1.815,2.258    c0.166,0.469,0.257,0.972,0.259,1.476c0.002,0.481-0.099,0.976-0.301,1.427c-0.397,0.908-1.206,1.65-2.183,1.965    c-0.243,0.08-0.496,0.134-0.753,0.161c-0.129,0.014-0.259,0.022-0.386,0.021c-0.124,0-0.252-0.01-0.376-0.026    c-0.502-0.067-0.99-0.271-1.398-0.589c-0.41-0.316-0.738-0.746-0.938-1.234c-0.1-0.244-0.168-0.503-0.201-0.767    c-0.013-0.101-0.021-0.201-0.023-0.301c-0.004-0.164,0.007-0.328,0.036-0.49c0.091-0.52,0.362-1.013,0.763-1.378    c0.399-0.367,0.926-0.601,1.48-0.647c0.55-0.055,1.122,0.124,1.548,0.5c0.428,0.37,0.699,0.929,0.716,1.513    c0.025-0.583-0.206-1.18-0.63-1.605c-0.211-0.212-0.467-0.384-0.749-0.497c-0.281-0.113-0.593-0.167-0.897-0.16    c-0.609,0.006-1.222,0.221-1.71,0.61c-0.49,0.384-0.855,0.939-1.01,1.557c-0.055,0.214-0.082,0.436-0.089,0.656    c-0.003,0.097-0.001,0.194,0.004,0.29c0.017,0.315,0.076,0.63,0.175,0.933c0.198,0.606,0.56,1.162,1.042,1.594    c0.48,0.434,1.082,0.742,1.728,0.877c0.161,0.033,0.323,0.057,0.49,0.07c0.164,0.012,0.325,0.014,0.487,0.009    c0.323-0.011,0.647-0.056,0.964-0.135c0.633-0.157,1.236-0.451,1.756-0.858c0.521-0.406,0.959-0.924,1.274-1.515    c0.317-0.592,0.508-1.25,0.555-1.933c0.045-0.659-0.024-1.325-0.201-1.968c-0.353-1.287-1.158-2.455-2.256-3.257    c-0.548-0.401-1.168-0.714-1.826-0.914c-0.328-0.101-0.667-0.173-1.009-0.217c-0.085-0.011-0.171-0.021-0.257-0.028    c-0.041-0.005-0.091-0.007-0.136-0.01l-0.124-0.007c-0.169-0.008-0.335-0.01-0.503-0.006c-1.341,0.026-2.69,0.427-3.846,1.153    c-1.157,0.723-2.125,1.766-2.762,3c-0.32,0.617-0.557,1.28-0.701,1.964c-0.11,0.508-0.162,1.035-0.171,1.546    c-0.003,0.176-0.001,0.351,0.006,0.522c0.051,1.358,0.401,2.719,1.025,3.949c0.622,1.231,1.515,2.331,2.604,3.203    c1.089,0.873,2.376,1.517,3.751,1.86c0.343,0.086,0.692,0.154,1.043,0.202c0.175,0.025,0.351,0.044,0.528,0.06    c0.088,0.007,0.177,0.013,0.265,0.019l0.259,0.012l0.264,0.006h0.257c0.171-0.001,0.343-0.007,0.514-0.016    c0.343-0.017,0.686-0.05,1.028-0.097c1.366-0.188,2.709-0.616,3.943-1.263c1.234-0.645,2.362-1.507,3.317-2.538    c0.956-1.03,1.741-2.231,2.301-3.54c0.561-1.308,0.895-2.722,0.982-4.151c0.005-0.083,0.01-0.197,0.014-0.279l0.004-0.109    l0.004-0.144c0.004-0.172,0.005-0.345,0.003-0.517C83.491,56.795,83.475,56.45,83.448,56.104z M52.754,16.724    c-0.03,0.037-0.071,0.07-0.114,0.101c-0.087,0.061-0.185,0.11-0.286,0.152c-0.016,0.007-0.032,0.013-0.049,0.019    c-0.188,0.073-0.385,0.128-0.585,0.17c-0.217,0.043-0.441,0.066-0.663,0.051c-0.045-0.003-0.09-0.008-0.134-0.016    c-0.001,0-0.001,0-0.002,0c-0.064-0.01-0.127-0.025-0.188-0.046c-0.039-0.013-0.078-0.029-0.113-0.049    c-0.01-0.005-0.02-0.011-0.03-0.018c-0.043-0.03-0.074-0.064-0.079-0.108c-0.004-0.032,0.017-0.079,0.049-0.115    c0.032-0.038,0.073-0.071,0.116-0.102c0.088-0.061,0.185-0.113,0.285-0.16c0.201-0.092,0.416-0.162,0.636-0.196    c0.221-0.036,0.447-0.038,0.666-0.013c0.109,0.014,0.218,0.033,0.32,0.064c0.05,0.017,0.099,0.036,0.14,0.062    c0.041,0.026,0.071,0.06,0.075,0.093c0.004,0.023-0.004,0.051-0.021,0.078C52.771,16.702,52.763,16.713,52.754,16.724z     M50.115,16.916c0.036-0.055,0.088-0.11,0.146-0.158c0.118-0.096,0.254-0.18,0.396-0.248c0.286-0.137,0.597-0.226,0.912-0.278    c0.315-0.05,0.638-0.063,0.953-0.023c0.157,0.02,0.312,0.056,0.454,0.111c0.07,0.027,0.137,0.063,0.188,0.105    c0.025,0.02,0.046,0.043,0.059,0.064c0.013,0.023,0.014,0.035,0.014,0.058c-0.005,0.016-0.026,0.06-0.071,0.098    c-0.003,0.003-0.006,0.005-0.009,0.008c-0.042,0.036-0.097,0.069-0.154,0.1c-0.071,0.039-0.148,0.072-0.228,0.101    c0.022-0.018,0.043-0.039,0.062-0.062c0.025-0.031,0.051-0.069,0.063-0.115c0.006-0.025,0.008-0.052,0.003-0.081    c-0.014-0.08-0.074-0.131-0.126-0.163c-0.054-0.032-0.111-0.053-0.168-0.067c-0.114-0.03-0.229-0.037-0.342-0.038    c-0.228,0.001-0.45,0.034-0.671,0.069c-0.221,0.038-0.442,0.076-0.658,0.148c-0.108,0.036-0.214,0.08-0.311,0.145    c-0.049,0.032-0.096,0.07-0.136,0.118c-0.038,0.048-0.075,0.11-0.061,0.191l0.006,0.021c0.003,0.009,0.007,0.018,0.012,0.027    c0.008,0.016,0.018,0.03,0.03,0.042c0.015,0.017,0.032,0.031,0.05,0.043c0.008,0.005,0.016,0.01,0.025,0.015    c0.049,0.028,0.101,0.045,0.152,0.059c-0.115-0.001-0.226-0.007-0.333-0.026c-0.003,0-0.005-0.001-0.008-0.001    c-0.133-0.022-0.263-0.074-0.281-0.131C50.069,17.033,50.078,16.97,50.115,16.916z M43.307,19.529    c0.145-0.327,0.397-0.609,0.693-0.817c0.297-0.208,0.654-0.333,1-0.345c0.171-0.007,0.339,0.012,0.479,0.06    c0.07,0.024,0.132,0.056,0.182,0.092c0.026,0.018,0.048,0.038,0.068,0.059c0.011,0.01,0.018,0.019,0.023,0.026l0.005,0.006    l0.01,0.014l0.014,0.019v0.001h0.001c0,0,0,0,0,0.001l0.001,0.002l0.003,0.005l0.006,0.008c0.003,0.006,0.006,0.012,0.009,0.018    c0.007,0.012,0.012,0.025,0.018,0.038c0.009,0.026,0.017,0.053,0.022,0.082c0.011,0.058,0.014,0.122,0.006,0.19    c-0.014,0.137-0.061,0.285-0.13,0.428c-0.002,0.004-0.003,0.007-0.006,0.011c-0.136,0.287-0.357,0.547-0.621,0.759    c-0.265,0.208-0.575,0.376-0.901,0.453c-0.035,0.009-0.071,0.016-0.107,0.022c-0.29,0.051-0.597,0.018-0.771-0.196    c-0.088-0.104-0.134-0.268-0.128-0.433C43.188,19.865,43.235,19.692,43.307,19.529z M38.154,24.788    c0.063-0.188,0.163-0.363,0.29-0.518c0.127-0.153,0.281-0.284,0.453-0.383c0.17-0.099,0.358-0.165,0.54-0.203    c0.183-0.038,0.362-0.047,0.52-0.029c0.161,0.018,0.29,0.067,0.4,0.162c0.094,0.082,0.171,0.209,0.211,0.358    c0.022,0.081,0.034,0.167,0.036,0.258c0.002,0.078-0.002,0.159-0.013,0.24c-0.023,0.175-0.076,0.351-0.142,0.524    c-0.034,0.086-0.072,0.172-0.113,0.258c-0.044,0.086-0.086,0.163-0.143,0.251c-0.202,0.321-0.507,0.605-0.873,0.735    c-0.002,0.001-0.004,0.001-0.006,0.002c-0.179,0.063-0.373,0.082-0.548,0.052c-0.088-0.015-0.171-0.042-0.243-0.08    c-0.074-0.038-0.132-0.081-0.19-0.141c-0.203-0.206-0.278-0.542-0.275-0.916C38.061,25.172,38.09,24.975,38.154,24.788z     M34.417,31.094c0.107-0.231,0.259-0.44,0.445-0.609c0.186-0.169,0.404-0.296,0.626-0.381c0.223-0.085,0.451-0.127,0.67-0.132    c0.22-0.005,0.426,0.035,0.622,0.129c0.183,0.087,0.352,0.225,0.483,0.394c0.074,0.095,0.137,0.202,0.187,0.316    c0.04,0.089,0.073,0.183,0.098,0.28c0.056,0.221,0.072,0.456,0.058,0.691c-0.015,0.236-0.056,0.474-0.139,0.708    c-0.115,0.337-0.323,0.658-0.603,0.893c-0.099,0.084-0.208,0.157-0.325,0.216c-0.219,0.113-0.466,0.168-0.702,0.162    c-0.238-0.007-0.456-0.071-0.655-0.18c-0.381-0.21-0.656-0.579-0.819-1.028c-0.08-0.225-0.126-0.473-0.119-0.724    C34.25,31.577,34.31,31.325,34.417,31.094z M36.911,41.784c-0.149,0.231-0.355,0.422-0.587,0.551    c-0.233,0.128-0.482,0.192-0.737,0.197c-0.492,0.013-0.972-0.198-1.373-0.551c-0.2-0.177-0.378-0.394-0.508-0.642    c-0.13-0.248-0.21-0.524-0.234-0.807c-0.024-0.281,0.006-0.567,0.089-0.834c0.083-0.267,0.22-0.512,0.386-0.721    c0.166-0.209,0.363-0.38,0.573-0.509c0.212-0.13,0.439-0.208,0.685-0.226c0.229-0.018,0.474,0.024,0.698,0.117    c0.225,0.094,0.433,0.243,0.61,0.427c0.08,0.084,0.153,0.174,0.221,0.27c0.081,0.117,0.154,0.243,0.218,0.374    c0.114,0.238,0.204,0.493,0.25,0.766c0.071,0.387,0.045,0.806-0.091,1.184C37.061,41.521,36.994,41.657,36.911,41.784z     M41.412,51.043c-0.067,0.296-0.199,0.576-0.388,0.8c-0.189,0.227-0.423,0.393-0.685,0.501c-0.508,0.21-1.094,0.174-1.643-0.042    c-0.275-0.109-0.542-0.266-0.769-0.475c-0.229-0.206-0.416-0.462-0.551-0.743c-0.275-0.561-0.307-1.227-0.126-1.789    c0.086-0.282,0.22-0.539,0.389-0.757c0.169-0.22,0.376-0.391,0.626-0.507c0.234-0.11,0.507-0.163,0.777-0.152    c0.273,0.01,0.548,0.085,0.804,0.209c0.256,0.124,0.492,0.297,0.704,0.5c0.21,0.204,0.4,0.435,0.551,0.699    C41.404,49.803,41.542,50.446,41.412,51.043z M47.135,59.321c-0.1,0.335-0.283,0.646-0.539,0.892    c-0.256,0.247-0.581,0.426-0.935,0.514c-0.354,0.088-0.733,0.095-1.098,0.025c-0.521-0.098-1.013-0.336-1.433-0.668    c-0.028-0.022-0.056-0.045-0.083-0.068c-0.031-0.027-0.062-0.054-0.093-0.082c-0.008-0.006-0.016-0.014-0.024-0.021    c-0.01-0.008-0.019-0.017-0.028-0.027c-0.003-0.001-0.005-0.004-0.007-0.006c-0.012-0.011-0.023-0.022-0.035-0.034    c-0.013-0.012-0.026-0.025-0.038-0.038c-0.01-0.01-0.02-0.02-0.03-0.031c-0.047-0.047-0.091-0.096-0.134-0.145    c-0.034-0.039-0.067-0.078-0.099-0.118c-0.028-0.035-0.055-0.07-0.082-0.106c-0.005-0.007-0.01-0.013-0.015-0.02    c-0.005-0.006-0.01-0.012-0.015-0.019c-0.009-0.012-0.017-0.023-0.025-0.035c-0.008-0.012-0.016-0.024-0.024-0.036    c-0.038-0.054-0.072-0.11-0.107-0.166c-0.088-0.144-0.167-0.294-0.234-0.45c-0.148-0.345-0.236-0.715-0.258-1.086    c-0.021-0.371,0.036-0.746,0.169-1.085c0.135-0.34,0.354-0.636,0.634-0.86c0.275-0.219,0.61-0.36,0.954-0.414    c0.344-0.059,0.699-0.03,1.039,0.053c0.34,0.083,0.663,0.232,0.959,0.421c0.295,0.189,0.564,0.422,0.796,0.687    c0.233,0.265,0.428,0.561,0.577,0.88c0.149,0.317,0.254,0.658,0.291,1.006C47.257,58.631,47.238,58.987,47.135,59.321z     M57.573,55.042c-0.15,0.333-0.366,0.644-0.648,0.875c-0.141,0.114-0.299,0.208-0.468,0.258c-0.168,0.05-0.35,0.051-0.506-0.02    c-0.159-0.067-0.285-0.203-0.364-0.367c-0.081-0.163-0.122-0.349-0.135-0.536c-0.025-0.378,0.069-0.761,0.236-1.103    c0.168-0.34,0.422-0.643,0.733-0.843c0.303-0.202,0.68-0.301,0.955-0.156c0.13,0.065,0.236,0.19,0.302,0.339    c0.069,0.149,0.103,0.322,0.11,0.498C57.807,54.341,57.721,54.707,57.573,55.042z M58.09,54.234    c-0.008,0.015-0.017,0.03-0.026,0.045c0.013-0.099,0.021-0.198,0.021-0.299c-0.003-0.206-0.034-0.418-0.122-0.619    c-0.046-0.1-0.105-0.196-0.182-0.281c-0.08-0.084-0.171-0.152-0.282-0.204c-0.101-0.044-0.22-0.07-0.332-0.071    c-0.112-0.002-0.221,0.02-0.323,0.053c-0.203,0.069-0.374,0.188-0.522,0.321c-0.293,0.274-0.501,0.609-0.661,0.958    c-0.157,0.35-0.264,0.726-0.272,1.116c-0.003,0.195,0.02,0.394,0.096,0.581c0.075,0.186,0.211,0.36,0.402,0.457    c0.191,0.096,0.417,0.102,0.615,0.05c0.201-0.051,0.382-0.15,0.543-0.271c0.085-0.064,0.165-0.134,0.238-0.209    c-0.021,0.052-0.042,0.105-0.062,0.157c-0.083,0.094-0.172,0.182-0.266,0.264c-0.177,0.152-0.373,0.283-0.587,0.355    c-0.212,0.074-0.441,0.09-0.65,0.009c-0.208-0.079-0.384-0.252-0.495-0.467c-0.112-0.216-0.172-0.465-0.189-0.716    c-0.031-0.472,0.074-0.954,0.266-1.391c0.013-0.029,0.026-0.058,0.04-0.087c0.017-0.035,0.034-0.07,0.051-0.104    c0.012-0.023,0.025-0.047,0.037-0.069c0-0.002,0.001-0.003,0.002-0.005c0.006-0.011,0.011-0.021,0.018-0.032    c0.007-0.011,0.013-0.021,0.019-0.032c0.005-0.009,0.011-0.019,0.016-0.028c0.208-0.352,0.478-0.667,0.807-0.903    c0.205-0.146,0.435-0.257,0.673-0.308c0.238-0.049,0.48-0.025,0.677,0.089c0.189,0.107,0.326,0.296,0.401,0.506    c0.08,0.211,0.103,0.445,0.098,0.678C58.135,53.93,58.118,54.083,58.09,54.234z M63.879,49.04    c-0.02,0.048-0.046,0.096-0.075,0.143c-0.04,0.065-0.088,0.129-0.14,0.19c-0.179,0.213-0.407,0.391-0.659,0.535    c-0.247,0.14-0.521,0.25-0.801,0.3c-0.103,0.018-0.207,0.027-0.309,0.022c-0.036-0.001-0.072-0.005-0.107-0.01    c-0.133-0.021-0.259-0.077-0.317-0.181c-0.063-0.102-0.05-0.246-0.003-0.377c0.049-0.132,0.128-0.257,0.22-0.372    c0.187-0.229,0.43-0.413,0.696-0.548c0.265-0.135,0.559-0.216,0.849-0.225c0.143-0.005,0.286,0.007,0.412,0.042    c0.062,0.018,0.118,0.043,0.163,0.074c0.023,0.014,0.042,0.031,0.058,0.049c0.018,0.023,0.018,0.021,0.041,0.063    C63.938,48.808,63.929,48.929,63.879,49.04z M64.314,48.95c-0.004,0.009-0.008,0.018-0.012,0.027    c-0.059,0.131-0.143,0.258-0.24,0.376c0.04-0.059,0.075-0.122,0.105-0.191c0.019-0.047,0.037-0.097,0.049-0.151    c0.03-0.129,0.029-0.274-0.052-0.421c-0.014-0.023-0.06-0.085-0.094-0.115c-0.038-0.034-0.079-0.063-0.122-0.085    c-0.085-0.044-0.173-0.064-0.257-0.076c-0.17-0.018-0.33,0.006-0.482,0.044c-0.303,0.08-0.577,0.211-0.84,0.358    c-0.261,0.147-0.51,0.319-0.727,0.532c-0.108,0.107-0.207,0.228-0.277,0.37c-0.034,0.072-0.062,0.15-0.07,0.235    c-0.009,0.084,0.003,0.175,0.043,0.257c0.018,0.035,0.049,0.078,0.079,0.109c0.032,0.031,0.067,0.059,0.104,0.082    c0.052,0.031,0.108,0.054,0.165,0.071c0.023,0.007,0.047,0.013,0.07,0.018c0.16,0.033,0.321,0.03,0.477,0.011    c0.313-0.04,0.608-0.142,0.888-0.283c0.017-0.008,0.033-0.017,0.05-0.026c-0.016,0.01-0.033,0.02-0.05,0.029    c-0.338,0.189-0.704,0.334-1.084,0.399c-0.189,0.031-0.382,0.042-0.565,0.012c-0.003,0-0.006-0.001-0.009-0.002    c-0.179-0.031-0.348-0.109-0.432-0.258c-0.086-0.144-0.067-0.345,0.002-0.52c0.069-0.178,0.178-0.344,0.303-0.495    c0.256-0.301,0.579-0.548,0.933-0.729c0.353-0.181,0.742-0.298,1.131-0.323c0.192-0.013,0.386-0.003,0.56,0.043    c0.175,0.045,0.322,0.128,0.383,0.259C64.402,48.622,64.383,48.792,64.314,48.95z M69.018,48.406    c-0.107-0.028-0.212-0.066-0.308-0.118c-0.047-0.026-0.092-0.056-0.129-0.092c-0.022-0.022-0.04-0.046-0.049-0.072    c-0.007-0.015-0.01-0.032-0.008-0.049c0.001-0.032,0.03-0.074,0.068-0.104c0.038-0.032,0.085-0.057,0.133-0.08    c0.097-0.044,0.202-0.077,0.309-0.106c0.214-0.054,0.437-0.085,0.661-0.079c0.223,0.004,0.446,0.043,0.657,0.107    c0.105,0.033,0.208,0.071,0.303,0.12c0.09,0.048,0.187,0.116,0.184,0.195c-0.001,0.025-0.026,0.068-0.063,0.097    c-0.033,0.027-0.073,0.05-0.114,0.071c-0.005,0.003-0.011,0.005-0.016,0.008c-0.096,0.044-0.202,0.075-0.309,0.098    c-0.214,0.045-0.435,0.067-0.657,0.073C69.458,48.478,69.234,48.461,69.018,48.406z M71.234,48.267    c-0.054,0.039-0.121,0.069-0.19,0.096c-0.008,0.003-0.015,0.006-0.023,0.009c-0.132,0.046-0.274,0.074-0.417,0.098    c-0.109,0.017-0.219,0.029-0.33,0.037c0.027-0.003,0.055-0.008,0.082-0.013c0.112-0.021,0.224-0.049,0.332-0.095    c0.045-0.019,0.089-0.042,0.131-0.072c0.009-0.006,0.017-0.013,0.026-0.02c0.047-0.042,0.099-0.095,0.1-0.185l-0.001-0.021    c-0.002-0.011-0.004-0.022-0.007-0.032c-0.006-0.018-0.013-0.035-0.022-0.05c-0.018-0.03-0.041-0.054-0.064-0.076    c-0.048-0.042-0.1-0.072-0.154-0.096c-0.106-0.05-0.218-0.078-0.33-0.098c-0.224-0.04-0.449-0.048-0.672-0.053    c-0.224-0.003-0.449-0.004-0.674,0.028c-0.112,0.016-0.225,0.04-0.332,0.087c-0.054,0.023-0.107,0.051-0.154,0.092    c-0.047,0.04-0.094,0.095-0.094,0.177l0.001,0.021c0.002,0.009,0.004,0.018,0.006,0.026c0,0.001,0.001,0.002,0.001,0.003    c0.006,0.017,0.013,0.032,0.022,0.047c0.018,0.028,0.04,0.051,0.063,0.07c0.047,0.04,0.099,0.067,0.152,0.091    c0.105,0.046,0.215,0.074,0.325,0.1c0.181,0.041,0.366,0.067,0.551,0.082c-0.27-0.01-0.542-0.034-0.806-0.086    c-0.15-0.03-0.299-0.066-0.436-0.124c-0.097-0.04-0.198-0.097-0.248-0.165c-0.019-0.025-0.03-0.051-0.032-0.079    c-0.006-0.043,0.028-0.106,0.08-0.154c0.051-0.05,0.116-0.092,0.185-0.127c0.138-0.07,0.289-0.122,0.444-0.159    c0.241-0.058,0.491-0.089,0.739-0.096c0.001-0.001,0.002-0.001,0.003-0.001c0.001,0,0.001,0,0.002,0    c0.067-0.001,0.136-0.001,0.205,0c0.045,0.001,0.09,0.002,0.134,0.005c0.274,0.014,0.548,0.056,0.811,0.13    c0.153,0.043,0.302,0.101,0.437,0.176c0.067,0.038,0.13,0.083,0.18,0.134c0.05,0.052,0.081,0.109,0.073,0.163    C71.328,48.178,71.289,48.229,71.234,48.267z"/>
	</g>
</g>
</svg>