<svg xmlns="http://www.w3.org/2000/svg" xmlns:xlink="http://www.w3.org/1999/xlink" version="1.1" x="0px" y="0px" width="100px" height="100px" viewBox="0 0 100 100" enable-background="new 0 0 100 100" xml:space="preserve">
<g id="Captions">
</g>

<style type="text/css" >
  <![CDATA[

    #the-krakn {
       stroke: #fff;
       fill:   #fff;
    }

  ]]>
</style>

<g id="the-krakn">
	<path d="M89.05,30.487c1.138-2.061,1.786-4.428,1.786-6.946c0-7.95-6.445-14.397-14.396-14.397s-14.396,6.447-14.396,14.397   c0,2.528,0.654,4.904,1.799,6.969c-8.37,3.021-18.977-0.71-26.707-8.137C31.361,16.824,14.082-3.204,5.945,8.731   c9.962-9.715,25.229,11.569,30.786,18.271C43.017,34.583,53,39.991,61.924,39.009c-6.045,3.477-14.355,4.214-22.292,2.258   C31.857,39.348,6.879,30.643,5.8,45.048c3.771-13.395,27.635-2.596,35.799,0.431c9.231,3.421,20.582,3.113,27.819-2.2   c-3.495,6.033-10.324,10.828-18.176,13.103c-7.693,2.226-33.677,7.176-27.408,20.19c-3.433-13.486,22.633-16.065,31.218-17.526   c9.705-1.653,19.38-7.594,22.991-15.814c-0.012,6.973-3.527,14.539-9.189,20.434c-5.549,5.775-25.576,23.053-13.642,31.191   c-9.715-9.965,11.568-25.23,18.271-30.788c7.579-6.283,12.988-16.267,12.006-25.191c3.476,6.044,4.214,14.354,2.257,22.29   C85.829,68.941,77.123,93.919,91.528,95c-13.396-3.772-2.596-27.635,0.43-35.799C95.524,49.576,95.034,37.657,89.05,30.487z"/>
</g>
</svg>